<svg xmlns="http://www.w3.org/2000/svg" width="900" height="340" viewBox="0 0 900 340"><rect width="900" height="340" fill="#0d1424"/><path d="M0,0 L0,340" stroke="#33415a" stroke-width="1" opacity="0.12" fill="none"/><path d="M45,0 L45,340" stroke="#33415a" stroke-width="1" opacity="0.12" fill="none"/><path d="M90,0 L90,340" stroke="#33415a" stroke-width="1" opacity="0.12" fill="none"/><path d="M135,0 L135,340" stroke="#33415a" stroke-width="1" opacity="0.12" fill="none"/><path d="M180,0 L180,340" stroke="#33415a" stroke-width="1" opacity="0.12" fill="none"/><path d="M225,0 L225,340" stroke="#33415a" stroke-width="1" opacity="0.12" fill="none"/><path d="M270,0 L270,340" stroke="#33415a" stroke-width="1" opacity="0.12" fill="none"/><path d="M315,0 L315,340" stroke="#33415a" stroke-width="1" opacity="0.12" fill="none"/><path d="M360,0 L360,340" stroke="#33415a" stroke-width="1" opacity="0.12" fill="none"/><path d="M405,0 L405,340" stroke="#33415a" stroke-width="1" opacity="0.12" fill="none"/><path d="M450,0 L450,340" stroke="#33415a" stroke-width="1" opacity="0.12" fill="none"/><path d="M495,0 L495,340" stroke="#33415a" stroke-width="1" opacity="0.12" fill="none"/><path d="M540,0 L540,340" stroke="#33415a" stroke-width="1" opacity="0.12" fill="none"/><path d="M585,0 L585,340" stroke="#33415a" stroke-width="1" opacity="0.12" fill="none"/><path d="M630,0 L630,340" stroke="#33415a" stroke-width="1" opacity="0.12" fill="none"/><path d="M675,0 L675,340" stroke="#33415a" stroke-width="1" opacity="0.12" fill="none"/><path d="M720,0 L720,340" stroke="#33415a" stroke-width="1" opacity="0.12" fill="none"/><path d="M765,0 L765,340" stroke="#33415a" stroke-width="1" opacity="0.12" fill="none"/><path d="M810,0 L810,340" stroke="#33415a" stroke-width="1" opacity="0.12" fill="none"/><path d="M855,0 L855,340" stroke="#33415a" stroke-width="1" opacity="0.12" fill="none"/><path d="M900,0 L900,340" stroke="#33415a" stroke-width="1" opacity="0.12" fill="none"/><path d="M0,0 L900,0" stroke="#33415a" stroke-width="1" opacity="0.12" fill="none"/><path d="M0,45 L900,45" stroke="#33415a" stroke-width="1" opacity="0.12" fill="none"/><path d="M0,90 L900,90" stroke="#33415a" stroke-width="1" opacity="0.12" fill="none"/><path d="M0,135 L900,135" stroke="#33415a" stroke-width="1" opacity="0.12" fill="none"/><path d="M0,180 L900,180" stroke="#33415a" stroke-width="1" opacity="0.12" fill="none"/><path d="M0,225 L900,225" stroke="#33415a" stroke-width="1" opacity="0.12" fill="none"/><path d="M0,270 L900,270" stroke="#33415a" stroke-width="1" opacity="0.12" fill="none"/><path d="M0,315 L900,315" stroke="#33415a" stroke-width="1" opacity="0.12" fill="none"/><rect x="60" y="60" width="210" height="70" rx="8" fill="#111e34" stroke="#38bdf8" stroke-opacity=".55"/><text x="165.0" y="102.0" fill="#38bdf8" font-family="Arial,sans-serif" font-size="20" text-anchor="middle" direction="rtl">داده</text><path d="M165,130 L450,230" stroke="#a78bfa" stroke-width="2" opacity="0.6" fill="none"/><rect x="345" y="60" width="210" height="70" rx="8" fill="#111e34" stroke="#38bdf8" stroke-opacity=".55"/><text x="450.0" y="102.0" fill="#38bdf8" font-family="Arial,sans-serif" font-size="20" text-anchor="middle" direction="rtl">پردازش</text><path d="M450,130 L450,230" stroke="#a78bfa" stroke-width="2" opacity="0.6" fill="none"/><rect x="630" y="60" width="210" height="70" rx="8" fill="#111e34" stroke="#38bdf8" stroke-opacity=".55"/><text x="735.0" y="102.0" fill="#38bdf8" font-family="Arial,sans-serif" font-size="20" text-anchor="middle" direction="rtl">یادگیری</text><path d="M735,130 L450,230" stroke="#a78bfa" stroke-width="2" opacity="0.6" fill="none"/><rect x="325" y="230" width="250" height="65" rx="8" fill="#111e34" stroke="#a78bfa" stroke-opacity=".55"/><text x="450.0" y="269.5" fill="#a78bfa" font-family="Arial,sans-serif" font-size="20" text-anchor="middle" direction="rtl">مدل آموزش‌دیده</text></svg>